REM DIRINDEX 1\2,1\3,1\4,1\5
REM DIRNAME cjc044,folder01,folder02,folder03,folder04
TITLE ""
FILE "1800_175.mp3" MP3
  TRACK 01 AUDIO
    TITLE "2:cjc044_5949"
    INDEX 01 00:00:00
  TRACK 02 AUDIO
    TITLE "0:"
    INDEX 01 00:01:13
  TRACK 03 AUDIO
    TITLE "3:cjc044_5950"
    INDEX 01 00:01:62
  TRACK 04 AUDIO
    TITLE "0:"
    INDEX 01 00:02:67
  TRACK 05 AUDIO
    TITLE "4:cjc044_5951"
    INDEX 01 00:03:39
  TRACK 06 AUDIO
    TITLE "0:"
    INDEX 01 00:04:66
  TRACK 07 AUDIO
    TITLE "2:cjc044_5952"
    INDEX 01 00:06:39
  TRACK 08 AUDIO
    TITLE "0:"
    INDEX 01 00:07:72
  TRACK 09 AUDIO
    TITLE "3:cjc044_5953"
    INDEX 01 00:08:48
  TRACK 10 AUDIO
    TITLE "0:"
    INDEX 01 00:09:61
  TRACK 11 AUDIO
    TITLE "4:cjc044_5954"
    INDEX 01 00:10:33
  TRACK 12 AUDIO
    TITLE "0:"
    INDEX 01 00:11:66
  TRACK 13 AUDIO
    TITLE "2:cjc044_5955"
    INDEX 01 00:13:39
  TRACK 14 AUDIO
    TITLE "0:"
    INDEX 01 00:14:62
  TRACK 15 AUDIO
    TITLE "3:cjc044_5956"
    INDEX 01 00:15:34
  TRACK 16 AUDIO
    TITLE "0:"
    INDEX 01 00:16:63
  TRACK 17 AUDIO
    TITLE "4:cjc044_5957"
    INDEX 01 00:17:39
  TRACK 18 AUDIO
    TITLE "0:"
    INDEX 01 00:18:62
  TRACK 19 AUDIO
    TITLE "2:cjc044_5958"
    INDEX 01 00:20:34
  TRACK 20 AUDIO
    TITLE "0:"
    INDEX 01 00:21:66
  TRACK 21 AUDIO
    TITLE "3:cjc044_5959"
    INDEX 01 00:22:36
  TRACK 22 AUDIO
    TITLE "0:"
    INDEX 01 00:23:55
  TRACK 23 AUDIO
    TITLE "4:cjc044_5960"
    INDEX 01 00:24:27
  TRACK 24 AUDIO
    TITLE "0:"
    INDEX 01 00:25:60
  TRACK 25 AUDIO
    TITLE "2:cjc044_5961"
    INDEX 01 00:27:28
  TRACK 26 AUDIO
    TITLE "0:"
    INDEX 01 00:28:37
  TRACK 27 AUDIO
    TITLE "3:cjc044_5962"
    INDEX 01 00:29:15
  TRACK 28 AUDIO
    TITLE "0:"
    INDEX 01 00:31:29
  TRACK 29 AUDIO
    TITLE "4:cjc044_5963"
    INDEX 01 00:32:01
  TRACK 30 AUDIO
    TITLE "0:"
    INDEX 01 00:33:09
  TRACK 31 AUDIO
    TITLE "2:cjc044_5964"
    INDEX 01 00:34:65
  TRACK 32 AUDIO
    TITLE "0:"
    INDEX 01 00:36:05
  TRACK 33 AUDIO
    TITLE "3:cjc044_5965"
    INDEX 01 00:36:52
  TRACK 34 AUDIO
    TITLE "0:"
    INDEX 01 00:38:04
  TRACK 35 AUDIO
    TITLE "4:cjc044_5966"
    INDEX 01 00:38:51
  TRACK 36 AUDIO
    TITLE "0:"
    INDEX 01 00:39:66
  TRACK 37 AUDIO
    TITLE "2:cjc044_5967"
    INDEX 01 00:41:38
  TRACK 38 AUDIO
    TITLE "0:"
    INDEX 01 00:42:51
  TRACK 39 AUDIO
    TITLE "3:cjc044_5968"
    INDEX 01 00:43:27
  TRACK 40 AUDIO
    TITLE "0:"
    INDEX 01 00:44:44
  TRACK 41 AUDIO
    TITLE "4:cjc044_5969"
    INDEX 01 00:45:18
  TRACK 42 AUDIO
    TITLE "0:"
    INDEX 01 00:46:35
  TRACK 43 AUDIO
    TITLE "2:cjc044_5970"
    INDEX 01 00:48:08
  TRACK 44 AUDIO
    TITLE "0:"
    INDEX 01 00:49:29
  TRACK 45 AUDIO
    TITLE "3:cjc044_5971"
    INDEX 01 00:50:05
  TRACK 46 AUDIO
    TITLE "0:"
    INDEX 01 00:51:01
  TRACK 47 AUDIO
    TITLE "4:cjc044_5972"
    INDEX 01 00:51:52
  TRACK 48 AUDIO
    TITLE "0:"
    INDEX 01 00:52:71
  TRACK 49 AUDIO
    TITLE "2:cjc044_5973"
    INDEX 01 00:54:46
  TRACK 50 AUDIO
    TITLE "0:"
    INDEX 01 00:56:10
  TRACK 51 AUDIO
    TITLE "3:cjc044_5974"
    INDEX 01 00:56:57
  TRACK 52 AUDIO
    TITLE "0:"
    INDEX 01 00:58:01
  TRACK 53 AUDIO
    TITLE "4:cjc044_5975"
    INDEX 01 00:58:48
  TRACK 54 AUDIO
    TITLE "0:"
    INDEX 01 01:00:13
  TRACK 55 AUDIO
    TITLE "2:cjc044_5976"
    INDEX 01 01:01:64
  TRACK 56 AUDIO
    TITLE "0:"
    INDEX 01 01:03:06
  TRACK 57 AUDIO
    TITLE "3:cjc044_5977"
    INDEX 01 01:03:53
  TRACK 58 AUDIO
    TITLE "0:"
    INDEX 01 01:04:68
  TRACK 59 AUDIO
    TITLE "4:cjc044_5978"
    INDEX 01 01:05:44
  TRACK 60 AUDIO
    TITLE "0:"
    INDEX 01 01:06:61
  TRACK 61 AUDIO
    TITLE "2:cjc044_5979"
    INDEX 01 01:08:33
  TRACK 62 AUDIO
    TITLE "0:"
    INDEX 01 01:09:61
  TRACK 63 AUDIO
    TITLE "3:cjc044_5980"
    INDEX 01 01:10:33
  TRACK 64 AUDIO
    TITLE "0:"
    INDEX 01 01:11:52
  TRACK 65 AUDIO
    TITLE "4:cjc044_5981"
    INDEX 01 01:12:23
  TRACK 66 AUDIO
    TITLE "0:"
    INDEX 01 01:13:51
  TRACK 67 AUDIO
    TITLE "2:cjc044_5982"
    INDEX 01 01:15:27
  TRACK 68 AUDIO
    TITLE "0:"
    INDEX 01 01:16:52
  TRACK 69 AUDIO
    TITLE "3:cjc044_5983"
    INDEX 01 01:17:30
  TRACK 70 AUDIO
    TITLE "0:"
    INDEX 01 01:18:37
  TRACK 71 AUDIO
    TITLE "4:cjc044_5984"
    INDEX 01 01:19:09
  TRACK 72 AUDIO
    TITLE "0:"
    INDEX 01 01:20:34
  TRACK 73 AUDIO
    TITLE "2:cjc044_5985"
    INDEX 01 01:22:15
  TRACK 74 AUDIO
    TITLE "0:"
    INDEX 01 01:23:46
  TRACK 75 AUDIO
    TITLE "3:cjc044_5986"
    INDEX 01 01:24:20
  TRACK 76 AUDIO
    TITLE "0:"
    INDEX 01 01:25:47
  TRACK 77 AUDIO
    TITLE "4:cjc044_5987"
    INDEX 01 01:26:21
  TRACK 78 AUDIO
    TITLE "0:"
    INDEX 01 01:27:51
  TRACK 79 AUDIO
    TITLE "2:cjc044_5988"
    INDEX 01 01:29:27
  TRACK 80 AUDIO
    TITLE "0:"
    INDEX 01 01:30:50
  TRACK 81 AUDIO
    TITLE "3:cjc044_5989"
    INDEX 01 01:31:24
  TRACK 82 AUDIO
    TITLE "0:"
    INDEX 01 01:32:31
  TRACK 83 AUDIO
    TITLE "4:cjc044_5990"
    INDEX 01 01:33:03
  TRACK 84 AUDIO
    TITLE "0:"
    INDEX 01 01:34:26
  TRACK 85 AUDIO
    TITLE "2:cjc044_5991"
    INDEX 01 01:36:01
  TRACK 86 AUDIO
    TITLE "0:"
    INDEX 01 01:37:15
  TRACK 87 AUDIO
    TITLE "3:cjc044_5992"
    INDEX 01 01:37:62
  TRACK 88 AUDIO
    TITLE "0:"
    INDEX 01 01:39:31
  TRACK 89 AUDIO
    TITLE "4:cjc044_5993"
    INDEX 01 01:40:01
  TRACK 90 AUDIO
    TITLE "0:"
    INDEX 01 01:41:16
  TRACK 91 AUDIO
    TITLE "2:cjc044_5994"
    INDEX 01 01:42:63
  TRACK 92 AUDIO
    TITLE "0:"
    INDEX 01 01:44:13
  TRACK 93 AUDIO
    TITLE "3:cjc044_5995"
    INDEX 01 01:44:64
  TRACK 94 AUDIO
    TITLE "0:"
    INDEX 01 01:46:02
  TRACK 95 AUDIO
    TITLE "4:cjc044_5996"
    INDEX 01 01:46:51
  TRACK 96 AUDIO
    TITLE "0:"
    INDEX 01 01:48:01
  TRACK 97 AUDIO
    TITLE "2:cjc044_5997"
    INDEX 01 01:49:53
  TRACK 98 AUDIO
    TITLE "0:"
    INDEX 01 01:50:68
  TRACK 99 AUDIO
    TITLE "3:cjc044_5998"
    INDEX 01 01:51:42
  TRACK 100 AUDIO
    TITLE "0:"
    INDEX 01 01:52:69
  TRACK 101 AUDIO
    TITLE "4:cjc044_5999"
    INDEX 01 01:53:39
  TRACK 102 AUDIO
    TITLE "0:"
    INDEX 01 01:54:56
  TRACK 103 AUDIO
    TITLE "2:cjc044_6000"
    INDEX 01 01:56:32
  TRACK 104 AUDIO
    TITLE "0:"
    INDEX 01 01:57:58
  TRACK 105 AUDIO
    TITLE "3:cjc044_6001"
    INDEX 01 01:58:30
  TRACK 106 AUDIO
    TITLE "0:"
    INDEX 01 01:59:34
  TRACK 107 AUDIO
    TITLE "4:cjc044_6002"
    INDEX 01 02:00:04
  TRACK 108 AUDIO
    TITLE "0:"
    INDEX 01 02:01:29
